<mxfile host="app.diagrams.net" modified="2024-06-02T15:28:20.356Z" agent="Mozilla/5.0 (Windows NT 10.0; Win64; x64) AppleWebKit/537.36 (KHTML, like Gecko) Chrome/125.0.0.0 Safari/537.36" etag="BCYErFJVPWqzJKRxUaEA" version="24.4.13" type="github">
  <diagram name="Page-1" id="JT8nSApSo8RRy19RMt6f">
    <mxGraphModel dx="880" dy="434" grid="1" gridSize="10" guides="1" tooltips="1" connect="1" arrows="1" fold="1" page="1" pageScale="1" pageWidth="850" pageHeight="1100" math="0" shadow="0">
      <root>
        <mxCell id="0" />
        <mxCell id="1" parent="0" />
        <mxCell id="sd1s6TD0uZBo1PUaS8JB-1" value="" style="image;aspect=fixed;perimeter=ellipsePerimeter;html=1;align=center;shadow=0;dashed=0;spacingTop=3;image=img/lib/active_directory/web_server.svg;" vertex="1" parent="1">
          <mxGeometry x="635" y="250" width="40" height="50" as="geometry" />
        </mxCell>
        <mxCell id="sd1s6TD0uZBo1PUaS8JB-2" value="" style="image;aspect=fixed;perimeter=ellipsePerimeter;html=1;align=center;shadow=0;dashed=0;spacingTop=3;image=img/lib/active_directory/sql_server.svg;" vertex="1" parent="1">
          <mxGeometry x="755" y="260" width="38.5" height="50" as="geometry" />
        </mxCell>
        <mxCell id="sd1s6TD0uZBo1PUaS8JB-3" value="" style="edgeStyle=orthogonalEdgeStyle;rounded=0;orthogonalLoop=1;jettySize=auto;html=1;" edge="1" parent="1" source="sd1s6TD0uZBo1PUaS8JB-5" target="sd1s6TD0uZBo1PUaS8JB-14">
          <mxGeometry relative="1" as="geometry" />
        </mxCell>
        <mxCell id="sd1s6TD0uZBo1PUaS8JB-4" value="" style="edgeStyle=orthogonalEdgeStyle;rounded=0;orthogonalLoop=1;jettySize=auto;html=1;" edge="1" parent="1" source="sd1s6TD0uZBo1PUaS8JB-5">
          <mxGeometry relative="1" as="geometry">
            <mxPoint x="365" y="305" as="targetPoint" />
          </mxGeometry>
        </mxCell>
        <mxCell id="sd1s6TD0uZBo1PUaS8JB-5" value="" style="fontColor=#0066CC;verticalAlign=top;verticalLabelPosition=bottom;labelPosition=center;align=center;html=1;outlineConnect=0;fillColor=#CCCCCC;strokeColor=#6881B3;gradientColor=none;gradientDirection=north;strokeWidth=2;shape=mxgraph.networks.pc;" vertex="1" parent="1">
          <mxGeometry x="83" y="270" width="100" height="70" as="geometry" />
        </mxCell>
        <mxCell id="sd1s6TD0uZBo1PUaS8JB-6" style="edgeStyle=orthogonalEdgeStyle;rounded=0;orthogonalLoop=1;jettySize=auto;html=1;" edge="1" parent="1" source="sd1s6TD0uZBo1PUaS8JB-7">
          <mxGeometry relative="1" as="geometry">
            <mxPoint x="555" y="285" as="targetPoint" />
          </mxGeometry>
        </mxCell>
        <mxCell id="sd1s6TD0uZBo1PUaS8JB-7" value="SERVER" style="rounded=0;whiteSpace=wrap;html=1;fillColor=none;gradientColor=default;verticalAlign=top;fontSize=14;fontStyle=1" vertex="1" parent="1">
          <mxGeometry x="613" y="195" width="192" height="180" as="geometry" />
        </mxCell>
        <mxCell id="sd1s6TD0uZBo1PUaS8JB-8" value="web server" style="rounded=0;whiteSpace=wrap;html=1;fontStyle=1;fillColor=none;strokeColor=none;" vertex="1" parent="1">
          <mxGeometry x="615" y="310" width="80" height="30" as="geometry" />
        </mxCell>
        <mxCell id="sd1s6TD0uZBo1PUaS8JB-9" value="MSQL&lt;div&gt;server&lt;/div&gt;" style="rounded=0;whiteSpace=wrap;html=1;fillColor=none;strokeColor=none;fontStyle=1" vertex="1" parent="1">
          <mxGeometry x="735" y="300" width="70" height="60" as="geometry" />
        </mxCell>
        <mxCell id="sd1s6TD0uZBo1PUaS8JB-10" value="CLIENT" style="rounded=0;whiteSpace=wrap;html=1;fontStyle=1;fillColor=none;strokeColor=none;" vertex="1" parent="1">
          <mxGeometry x="115" y="345" width="50" height="40" as="geometry" />
        </mxCell>
        <mxCell id="sd1s6TD0uZBo1PUaS8JB-11" value="" style="outlineConnect=0;dashed=0;verticalLabelPosition=bottom;verticalAlign=top;align=center;html=1;shape=mxgraph.aws3.android;fillColor=#5A69A4;gradientColor=none;" vertex="1" parent="1">
          <mxGeometry x="695" y="255" width="40" height="40" as="geometry" />
        </mxCell>
        <mxCell id="sd1s6TD0uZBo1PUaS8JB-12" value="PHP&lt;div&gt;code&amp;nbsp;&lt;/div&gt;&lt;div&gt;base&lt;/div&gt;" style="rounded=0;whiteSpace=wrap;html=1;fontStyle=1;fillColor=none;strokeColor=none;" vertex="1" parent="1">
          <mxGeometry x="696" y="301" width="40" height="59" as="geometry" />
        </mxCell>
        <mxCell id="sd1s6TD0uZBo1PUaS8JB-13" style="edgeStyle=orthogonalEdgeStyle;rounded=0;orthogonalLoop=1;jettySize=auto;html=1;" edge="1" parent="1" source="sd1s6TD0uZBo1PUaS8JB-14">
          <mxGeometry relative="1" as="geometry">
            <mxPoint x="133" y="270" as="targetPoint" />
          </mxGeometry>
        </mxCell>
        <mxCell id="sd1s6TD0uZBo1PUaS8JB-14" value="" style="image;aspect=fixed;html=1;points=[];align=center;fontSize=12;image=img/lib/azure2/networking/DNS_Zones.svg;" vertex="1" parent="1">
          <mxGeometry x="101" y="120" width="64" height="64" as="geometry" />
        </mxCell>
        <mxCell id="sd1s6TD0uZBo1PUaS8JB-15" value="" style="edgeStyle=orthogonalEdgeStyle;rounded=0;orthogonalLoop=1;jettySize=auto;html=1;" edge="1" parent="1" source="sd1s6TD0uZBo1PUaS8JB-16">
          <mxGeometry relative="1" as="geometry">
            <mxPoint x="605" y="305" as="targetPoint" />
          </mxGeometry>
        </mxCell>
        <mxCell id="sd1s6TD0uZBo1PUaS8JB-16" value="" style="outlineConnect=0;dashed=0;verticalLabelPosition=bottom;verticalAlign=top;align=center;html=1;shape=mxgraph.aws3.internet_3;fillColor=#D2D3D3;gradientColor=none;" vertex="1" parent="1">
          <mxGeometry x="375" y="278" width="79.5" height="54" as="geometry" />
        </mxCell>
        <mxCell id="sd1s6TD0uZBo1PUaS8JB-17" value="HTTP request&lt;div&gt;&lt;font style=&quot;font-size: 10px;&quot;&gt;www.foobar.com&lt;/font&gt;&lt;/div&gt;" style="rounded=0;whiteSpace=wrap;html=1;fontStyle=1;fillColor=none;strokeColor=none;" vertex="1" parent="1">
          <mxGeometry x="215" y="260" width="120" height="35" as="geometry" />
        </mxCell>
        <mxCell id="sd1s6TD0uZBo1PUaS8JB-18" value="HTTP response" style="rounded=0;whiteSpace=wrap;html=1;fontStyle=1;fillColor=none;strokeColor=none;" vertex="1" parent="1">
          <mxGeometry x="475" y="243" width="120" height="35" as="geometry" />
        </mxCell>
        <mxCell id="sd1s6TD0uZBo1PUaS8JB-19" value="www.foobar.com" style="rounded=0;whiteSpace=wrap;html=1;fontStyle=1;rotation=-90;fontSize=9;fillColor=none;strokeColor=none;" vertex="1" parent="1">
          <mxGeometry x="60" y="209" width="105" height="34" as="geometry" />
        </mxCell>
        <mxCell id="sd1s6TD0uZBo1PUaS8JB-20" value="8.8.8.8" style="rounded=0;whiteSpace=wrap;html=1;rotation=90;fillColor=none;strokeColor=none;" vertex="1" parent="1">
          <mxGeometry x="95" y="196" width="120" height="60" as="geometry" />
        </mxCell>
        <mxCell id="sd1s6TD0uZBo1PUaS8JB-21" value="DNS&lt;div&gt;type A&lt;/div&gt;" style="rounded=0;whiteSpace=wrap;html=1;fontStyle=1;fillColor=none;strokeColor=none;" vertex="1" parent="1">
          <mxGeometry x="135" y="130" width="120" height="60" as="geometry" />
        </mxCell>
        <mxCell id="sd1s6TD0uZBo1PUaS8JB-22" value="Internet" style="rounded=0;whiteSpace=wrap;html=1;fontStyle=1;fillColor=none;strokeColor=none;" vertex="1" parent="1">
          <mxGeometry x="355" y="332" width="120" height="35" as="geometry" />
        </mxCell>
      </root>
    </mxGraphModel>
  </diagram>
</mxfile>
